<?xml version="1.0" encoding="utf-8"?>
<!-- Generator: Adobe Illustrator 19.0.0, SVG Export Plug-In . SVG Version: 6.00 Build 0)  -->
<svg version="1.1" id="Capa_1" xmlns="http://www.w3.org/2000/svg" xmlns:xlink="http://www.w3.org/1999/xlink" x="0px" y="0px"
	 viewBox="181.8 -19.1 536.3 538.1" style="enable-background:new 181.8 -19.1 536.3 538.1;" xml:space="preserve">
<style type="text/css">
	.st0{fill:#949494;}
</style>
<g>
	<path class="st0" d="M618.2,217.7c64.3,9.8,108.4,69.8,98.6,134.1c-7.8,50.9-47.7,90.9-98.6,98.6v51.8c0,9.3-7.5,16.8-16.8,16.8
		c-9.3,0-16.8-7.5-16.8-16.8v-51.8c-64.3-9.8-108.4-69.8-98.6-134.1c7.8-50.9,47.7-90.9,98.6-98.6v-220c0-9.3,7.5-16.8,16.8-16.8
		c9.3,0,16.8,7.5,16.8,16.8V217.7z M315.5,49.5c64.3,9.8,108.4,69.8,98.6,134.1c-7.8,50.9-47.7,90.9-98.6,98.6v220
		c0,9.3-7.5,16.8-16.8,16.8s-16.8-7.5-16.8-16.8v-220c-64.3-9.8-108.4-69.8-98.6-134.1c7.8-50.9,47.7-90.9,98.6-98.6V-2.3
		c0-9.3,7.5-16.8,16.8-16.8s16.8,7.5,16.8,16.8V49.5z M298.6,250c46.4,0,84.1-37.6,84.1-84.1s-37.6-84.1-84.1-84.1
		s-84.1,37.6-84.1,84.1S252.2,250,298.6,250z M601.4,418.2c46.4,0,84.1-37.6,84.1-84.1S647.8,250,601.4,250
		c-46.4,0-84.1,37.6-84.1,84.1S554.9,418.2,601.4,418.2z"/>
</g>
</svg>
