<?xml version="1.0" encoding="iso-8859-1"?>
<!-- Generator: Adobe Illustrator 19.0.0, SVG Export Plug-In . SVG Version: 6.00 Build 0)  -->
<svg version="1.1" id="Layer_1" xmlns="http://www.w3.org/2000/svg" xmlns:xlink="http://www.w3.org/1999/xlink" x="0px" y="0px"
	 viewBox="0 0 512 512" style="enable-background:new 0 0 512 512;" xml:space="preserve">
<path style="fill:#A09C53;" d="M232.984,487.126V363.98c0-0.002,0-0.003,0-0.006v-120.53c0-4.809-3.899-8.708-8.708-8.708
	s-8.708,3.899-8.708,8.708v99.512l-1.507-1.507c-3.401-3.402-8.914-3.401-12.314,0c-3.401,3.401-3.401,8.914,0,12.314l13.822,13.821
	v98.524l-1.507-1.507c-3.401-3.401-8.914-3.401-12.314,0c-3.401,3.401-3.401,8.914,0,12.314l13.822,13.822v12.556
	c0,4.809,3.899,8.708,8.708,8.708s8.708-3.899,8.708-8.708v-16.16C232.984,487.131,232.984,487.129,232.984,487.126z"/>
<polygon style="fill:#E8564F;" points="265.414,40.81 227.054,80.902 185.958,80.902 185.049,39.672 184.979,39.637 224.604,0 "/>
<path style="fill:#DD4747;" d="M227.054,55.891v0.012l-14.78,58.282c-28.422,11.181-78.763-8.358-90.339,17.474l39.149-101.264
	l23.882,9.242h0.012l0.07,0.035L227.054,55.891z"/>
<path style="fill:#FC675B;" d="M119.924,218.572L119.924,218.572c-22.679-57.633,5.656-122.737,63.289-145.416l104.352-41.064
	l41.064,104.352c22.678,57.632-5.656,122.737-63.289,145.416l0,0C207.707,304.539,142.602,276.205,119.924,218.572z"/>
<path style="fill:#E8564F;" d="M159.679,207.263L159.679,207.263c-19.428-49.371-8.097-102.494,24.658-134.55l-1.125,0.442
	c-57.633,22.678-85.967,87.783-63.289,145.416l0,0c20.689,52.578,76.69,80.764,130.113,68.084
	C211.464,278.565,176.347,249.618,159.679,207.263z"/>
<path style="fill:#CEC73C;" d="M399.896,284.762c0,18.054-2.786,36.073-8.324,53.256c-5.387,16.719-13.352,32.578-23.511,46.905
	c-10.089,14.246-22.338,26.947-36.189,37.57c-13.909,10.658-29.432,19.192-45.883,25.206c-16.997,6.2-34.958,9.683-53.035,10.345
	c-2.148,0.081-4.307,0.128-6.455,0.128c0-18.054,2.786-36.073,8.324-53.256c5.399-16.719,13.352-32.59,23.511-46.917
	c10.101-14.234,22.338-26.936,36.2-37.559c13.897-10.658,29.42-19.192,45.883-25.206c16.986-6.211,34.947-9.694,53.024-10.356
	C395.6,284.809,397.748,284.762,399.896,284.762z"/>
<path style="fill:#BAB031;" d="M399.896,284.762c0,18.054-2.786,36.073-8.324,53.256c-5.387,16.719-13.352,32.578-23.511,46.905
	c-10.089,14.246-22.338,26.947-36.189,37.57c-13.909,10.658-29.432,19.192-45.883,25.206c-16.997,6.2-34.958,9.683-53.035,10.345
	c-2.148,0.081-4.307,0.128-6.455,0.128L399.896,284.762z"/>
<path style="fill:#A09C53;" d="M220.34,452.01l159.041-146.726L232.655,464.325c-3.264,3.538-8.777,3.759-12.315,0.496
	s-3.759-8.777-0.496-12.314C220,452.338,220.174,452.164,220.34,452.01z"/>
<g>
</g>
<g>
</g>
<g>
</g>
<g>
</g>
<g>
</g>
<g>
</g>
<g>
</g>
<g>
</g>
<g>
</g>
<g>
</g>
<g>
</g>
<g>
</g>
<g>
</g>
<g>
</g>
<g>
</g>
</svg>
