<?xml version="1.0" encoding="utf-8"?>
<!-- Generator: Adobe Illustrator 19.0.0, SVG Export Plug-In . SVG Version: 6.00 Build 0)  -->
<svg version="1.1" id="Layer_1" xmlns="http://www.w3.org/2000/svg" xmlns:xlink="http://www.w3.org/1999/xlink" x="0px" y="0px"
	 viewBox="6 -6 512 512" style="enable-background:new 6 -6 512 512;" xml:space="preserve">
<style type="text/css">
	.st0{fill:none;}
	.st1{fill:#FFFFFF;}
</style>
<g>
	<title>background</title>
	<rect id="canvas_background" x="5" y="-7" class="st0" width="582" height="402"/>
</g>
<g>
	<title>Layer 1</title>
	<path id="svg_1" class="st1" d="M239,481.1V358c0,0,0,0,0,0V237.4c0-4.8-3.9-8.7-8.7-8.7s-8.7,3.9-8.7,8.7V337l-1.5-1.5
		c-3.4-3.4-8.9-3.4-12.3,0c-3.4,3.4-3.4,8.9,0,12.3l13.8,13.8v98.5l-1.5-1.5c-3.4-3.4-8.9-3.4-12.3,0c-3.4,3.4-3.4,8.9,0,12.3
		l13.8,13.8v12.6c0,4.8,3.9,8.7,8.7,8.7s8.7-3.9,8.7-8.7L239,481.1C239,481.1,239,481.1,239,481.1L239,481.1z"/>
	<polygon id="svg_2" class="st1" points="271.4,34.8 233.1,74.9 192,74.9 191,33.7 191,33.6 230.6,-6 	"/>
	<path id="svg_3" class="st1" d="M233.1,49.9L233.1,49.9l-14.8,58.3c-28.4,11.2-78.8-8.4-90.3,17.5l39.1-101.3l23.9,9.2h0l0.1,0
		L233.1,49.9z"/>
	<path id="svg_4" class="st1" d="M125.9,212.6L125.9,212.6c-22.7-57.6,5.7-122.7,63.3-145.4l104.4-41.1l41.1,104.4
		c22.7,57.6-5.7,122.7-63.3,145.4l0,0C213.7,298.5,148.6,270.2,125.9,212.6L125.9,212.6z"/>
	<path id="svg_5" class="st1" d="M165.7,201.3L165.7,201.3c-19.4-49.4-8.1-102.5,24.7-134.6l-1.1,0.4c-57.6,22.7-86,87.8-63.3,145.4
		l0,0c20.7,52.6,76.7,80.8,130.1,68.1C217.5,272.6,182.3,243.6,165.7,201.3L165.7,201.3z"/>
	<path id="svg_6" class="st1" d="M405.9,278.8c0,18.1-2.8,36.1-8.3,53.3c-5.4,16.7-13.4,32.6-23.5,46.9
		c-10.1,14.2-22.3,26.9-36.2,37.6c-13.9,10.7-29.4,19.2-45.9,25.2c-17,6.2-35,9.7-53,10.3c-2.1,0.1-4.3,0.1-6.5,0.1
		c0-18.1,2.8-36.1,8.3-53.3c5.4-16.7,13.4-32.6,23.5-46.9c10.1-14.2,22.3-26.9,36.2-37.6c13.9-10.7,29.4-19.2,45.9-25.2
		c17-6.2,34.9-9.7,53-10.4C401.6,278.8,403.7,278.8,405.9,278.8L405.9,278.8z"/>
	<path id="svg_7" class="st1" d="M405.9,278.8c0,18.1-2.8,36.1-8.3,53.3c-5.4,16.7-13.4,32.6-23.5,46.9
		c-10.1,14.2-22.3,26.9-36.2,37.6c-13.9,10.7-29.4,19.2-45.9,25.2c-17,6.2-35,9.7-53,10.3c-2.1,0.1-4.3,0.1-6.5,0.1L405.9,278.8z"/>
	<path id="svg_8" class="st1" d="M226.3,446l159-146.7l-146.7,159c-3.3,3.5-8.8,3.8-12.3,0.5s-3.8-8.8-0.5-12.3
		C226,446.3,226.2,446.2,226.3,446L226.3,446z"/>
	<g id="svg_9">
	</g>
	<g id="svg_10">
	</g>
	<g id="svg_11">
	</g>
	<g id="svg_12">
	</g>
	<g id="svg_13">
	</g>
	<g id="svg_14">
	</g>
	<g id="svg_15">
	</g>
	<g id="svg_16">
	</g>
	<g id="svg_17">
	</g>
	<g id="svg_18">
	</g>
	<g id="svg_19">
	</g>
	<g id="svg_20">
	</g>
	<g id="svg_21">
	</g>
	<g id="svg_22">
	</g>
	<g id="svg_23">
	</g>
</g>
<g transform="translate(0.000000,512.000000) scale(0.100000,-0.100000)">
	<path class="st1" d="M4323,4933.6c-14.7-9-33.5-27.8-42.5-42.5c-15.5-25.3-16.4-41.7-16.4-310.7v-284.6h-283.7
		c-269.8,0-286.2-0.8-311.5-16.4c-39.3-24.5-58.9-61.3-58.9-114.5s19.6-89.9,58.9-114.5c25.3-15.5,41.7-16.4,311.5-16.4h283.7
		v-283.7c0-269.8,0.8-286.2,16.4-311.5c24.5-39.3,61.3-58.9,114.5-58.9s89.9,19.6,114.5,58.9c15.5,25.3,16.4,41.7,16.4,311.5v283.7
		h284.6c269,0,285.4,0.8,310.7,16.4c39.3,24.5,58.9,61.3,58.9,114.5s-19.6,89.9-58.9,114.5c-25.3,15.5-41.7,16.4-310.7,16.4h-284.6
		v284.6c0,269-0.8,285.4-16.4,310.7c-24.5,39.3-61.3,58.9-114.5,58.9C4364.7,4950,4341,4945.1,4323,4933.6z"/>
</g>
</svg>
