<svg width="512" height="512" xmlns="http://www.w3.org/2000/svg">

 <g>
  <title>background</title>
  <rect fill="none" id="canvas_background" height="402" width="582" y="-1" x="-1"/>
 </g>
 <g>
  <title>Layer 1</title>
  <path id="svg_1" fill="#ffffff" d="m232.984,487.126l0,-123.146c0,-0.002 0,-0.003 0,-0.006l0,-120.53c0,-4.809 -3.899,-8.708 -8.708,-8.708s-8.708,3.899 -8.708,8.708l0,99.512l-1.507,-1.507c-3.401,-3.402 -8.914,-3.401 -12.314,0c-3.401,3.401 -3.401,8.914 0,12.314l13.822,13.821l0,98.524l-1.507,-1.507c-3.401,-3.401 -8.914,-3.401 -12.314,0c-3.401,3.401 -3.401,8.914 0,12.314l13.822,13.822l0,12.556c0,4.809 3.899,8.708 8.708,8.708s8.708,-3.899 8.708,-8.708l0,-16.16c-0.002,-0.002 -0.002,-0.004 -0.002,-0.007z"/>
  <polygon id="svg_2" fill="#ffffff" points="265.414,40.81 227.054,80.902 185.958,80.902 185.049,39.672 184.979,39.637 224.604,0 "/>
  <path id="svg_3" fill="#ffffff" d="m227.054,55.891l0,0.012l-14.78,58.282c-28.422,11.181 -78.763,-8.358 -90.339,17.474l39.149,-101.264l23.882,9.242l0.012,0l0.07,0.035l42.006,16.219z"/>
  <path id="svg_4" fill="#ffffff" d="m119.924,218.572l0,0c-22.679,-57.633 5.656,-122.737 63.289,-145.416l104.352,-41.064l41.064,104.352c22.678,57.632 -5.656,122.737 -63.289,145.416l0,0c-57.633,22.679 -122.738,-5.655 -145.416,-63.288z"/>
  <path id="svg_5" fill="#ffffff" d="m159.679,207.263l0,0c-19.428,-49.371 -8.097,-102.494 24.658,-134.55l-1.125,0.442c-57.633,22.678 -85.967,87.783 -63.289,145.416l0,0c20.689,52.578 76.69,80.764 130.113,68.084c-38.572,-8.09 -73.689,-37.037 -90.357,-79.392z"/>
  <path id="svg_6" fill="#ffffff" d="m399.896,284.762c0,18.054 -2.786,36.073 -8.324,53.256c-5.387,16.719 -13.352,32.578 -23.511,46.905c-10.089,14.246 -22.338,26.947 -36.189,37.57c-13.909,10.658 -29.432,19.192 -45.883,25.206c-16.997,6.2 -34.958,9.683 -53.035,10.345c-2.148,0.081 -4.307,0.128 -6.455,0.128c0,-18.054 2.786,-36.073 8.324,-53.256c5.399,-16.719 13.352,-32.59 23.511,-46.917c10.101,-14.234 22.338,-26.936 36.2,-37.559c13.897,-10.658 29.42,-19.192 45.883,-25.206c16.986,-6.211 34.947,-9.694 53.024,-10.356c2.159,-0.069 4.307,-0.116 6.455,-0.116z"/>
  <path id="svg_7" fill="#ffffff" d="m399.896,284.762c0,18.054 -2.786,36.073 -8.324,53.256c-5.387,16.719 -13.352,32.578 -23.511,46.905c-10.089,14.246 -22.338,26.947 -36.189,37.57c-13.909,10.658 -29.432,19.192 -45.883,25.206c-16.997,6.2 -34.958,9.683 -53.035,10.345c-2.148,0.081 -4.307,0.128 -6.455,0.128l173.397,-173.41z"/>
  <path id="svg_8" fill="#ffffff" d="m220.34,452.01l159.041,-146.726l-146.726,159.041c-3.264,3.538 -8.777,3.759 -12.315,0.496s-3.759,-8.777 -0.496,-12.314c0.156,-0.169 0.33,-0.343 0.496,-0.497z"/>
  <g id="svg_9"/>
  <g id="svg_10"/>
  <g id="svg_11"/>
  <g id="svg_12"/>
  <g id="svg_13"/>
  <g id="svg_14"/>
  <g id="svg_15"/>
  <g id="svg_16"/>
  <g id="svg_17"/>
  <g id="svg_18"/>
  <g id="svg_19"/>
  <g id="svg_20"/>
  <g id="svg_21"/>
  <g id="svg_22"/>
  <g id="svg_23"/>
 </g>
</svg>