<?xml version="1.0" encoding="utf-8"?>
<!-- Generator: Adobe Illustrator 19.0.0, SVG Export Plug-In . SVG Version: 6.00 Build 0)  -->
<svg version="1.1" id="Layer_1" xmlns="http://www.w3.org/2000/svg" xmlns:xlink="http://www.w3.org/1999/xlink" x="0px" y="0px"
	 viewBox="-238.2 243.4 17.6 16" style="enable-background:new -238.2 243.4 17.6 16;" xml:space="preserve">
<style type="text/css">
	.st0{fill:#C03B2B;}
</style>
<g id="XMLID_1_">
	<g id="XMLID_6_">
		<path id="XMLID_11_" class="st0" d="M-229.4,259.4c-0.4-0.4-0.7-0.8-1.1-1.2c-2.1-2.2-4.2-4.4-6.3-6.6c-0.6-0.7-1.1-1.5-1.3-2.5
			c-0.2-1.3,0-2.5,0.7-3.6c0.6-1,1.5-1.6,2.6-1.9c0.6-0.2,1.3-0.2,1.9-0.1c0.9,0,1.6,0.3,2.3,0.8c0.3,0.2,0.6,0.4,0.8,0.7
			c0.1,0.1,0.3,0.3,0.4,0.5c0,0,0-0.1,0.1-0.1c0.3-0.3,0.5-0.6,0.8-0.8c0.7-0.6,1.4-0.9,2.3-1.1c1.1-0.2,2.2,0,3.2,0.5
			c1.3,0.7,2,1.8,2.3,3.2c0.3,1.7-0.1,3.2-1.3,4.4C-224.4,254.2-226.9,256.8-229.4,259.4C-229.3,259.4-229.4,259.4-229.4,259.4z"/>
	</g>
</g>
<g id="XMLID_81_">
</g>
<g id="XMLID_82_">
</g>
<g id="XMLID_83_">
</g>
<g id="XMLID_84_">
</g>
<g id="XMLID_85_">
</g>
<g id="XMLID_86_">
</g>
</svg>
