<?xml version="1.0" encoding="utf-8"?>
<!-- Generator: Adobe Illustrator 19.0.0, SVG Export Plug-In . SVG Version: 6.00 Build 0)  -->
<svg version="1.1" id="Capa_1" xmlns="http://www.w3.org/2000/svg" xmlns:xlink="http://www.w3.org/1999/xlink" x="0px" y="0px"
	 viewBox="230.1 118 263.9 263.9" style="enable-background:new 230.1 118 263.9 263.9;" xml:space="preserve">
<style type="text/css">
	.st0{fill:#D3D3D3;}
</style>
<g>
	<g>
		<g>
			<g>
				<path class="st0" d="M446.1,344.6c-2.7,0-5.4-1-7.5-3.1L270.5,173.4c-4.1-4.1-4.1-10.8,0-14.9c4.1-4.1,10.8-4.1,14.9,0
					l168.2,168.2c4.1,4.1,4.1,10.8,0,14.9C451.5,343.6,448.8,344.6,446.1,344.6z"/>
				<path class="st0" d="M277.9,344.6c-2.7,0-5.4-1-7.5-3.1c-4.1-4.1-4.1-10.8,0-14.9l168.2-168.2c4.1-4.1,10.8-4.1,14.9,0
					c4.1,4.1,4.1,10.8,0,14.9L285.4,341.6C283.3,343.6,280.6,344.6,277.9,344.6z"/>
			</g>
		</g>
	</g>
</g>
</svg>
