<?xml version="1.0" encoding="utf-8"?>
<!-- Generator: Adobe Illustrator 19.0.0, SVG Export Plug-In . SVG Version: 6.00 Build 0)  -->
<svg version="1.1" id="Layer_1" xmlns="http://www.w3.org/2000/svg" xmlns:xlink="http://www.w3.org/1999/xlink" x="0px" y="0px"
	 viewBox="0 0 31 31" style="enable-background:new 0 0 31 31;" xml:space="preserve">
<style type="text/css">
	.st0{fill:#C03B2B;}
</style>
<path class="st0" d="M3.3,22.3l3.2,3.1l3.3,3.2l0.9,0.1c1.8,0.1,4.6-0.9,5.9-2.2L28.1,15c0.9-0.9,0.9-2.3,0-3.2l-3.2-3.2L13.8,19.8
	l-1.6-1.6L23.3,7.1l-3.2-3.2C19.3,3,17.8,3,17,3.9L5.4,15.5c-1.4,1.6-2.2,3.7-2.2,5.9L3.3,22.3L3.3,22.3z M15.4,2.3
	c1.8-1.8,4.6-1.8,6.4,0l8,8c1.7,1.8,1.7,4.6,0,6.3L18.1,28.2c-2.1,1.9-4.8,2.9-7.7,2.8l-8.8-0.7L1,21.5C0.9,18.7,2,16,3.8,13.9
	L15.4,2.3z"/>
</svg>
