<svg xmlns="http://www.w3.org/2000/svg" viewBox="0 0 60 60"><circle cx="30" cy="30" r="30" fill="#1b75bc"/><path d="M32.75 25.72a1.9 1.9 0 0 0-1.35.56 1.16 1.16 0 0 0-.2.25 3.85 3.85 0 0 1 0 2.23 4 4 0 0 1-1 1.74l-6.77 6.77a1.24 1.24 0 0 1-1.75 0l-6.82-6.77a4 4 0 0 1 5.71-5.72l1.93 1.92 1.92-1.92a3.85 3.85 0 0 1 1.31-.87A8.28 8.28 0 0 1 27.12 22l.21-.19a5.8 5.8 0 0 0-4.15 1.69l-.68.69-.69-.69a5.79 5.79 0 1 0-8.19 8.2l6.77 6.77a3 3 0 0 0 4.22 0l6.77-6.77a5.39 5.39 0 0 0 1.12-1.6 5.62 5.62 0 0 0 .58-2.5 5.74 5.74 0 0 0-.33-1.88z" fill="#ececec"/><path d="M46.38 23.54a5.82 5.82 0 0 0-8.2 0l-.68.69-.69-.69a5.76 5.76 0 0 0-4.09-1.69 5.8 5.8 0 0 0-2.67.67 5.94 5.94 0 0 0-1.38 1 1.3 1.3 0 0 0-.19.22 5.53 5.53 0 0 0-1.17 2 5.62 5.62 0 0 0-.33 1.92 5.77 5.77 0 0 0 .57 2.51L28.64 29a1.37 1.37 0 0 0 .19-.23 4.07 4.07 0 0 1 0-2.26 4.1 4.1 0 0 1 1-1.73l.14-.13a3.84 3.84 0 0 1 1.58-.89 4 4 0 0 1 1.13-.16 4.1 4.1 0 0 1 1.54.3 3.92 3.92 0 0 1 1.32.88l1.96 1.92 1.92-1.92a4 4 0 0 1 5.72 5.72l-6.77 6.77a1.24 1.24 0 0 1-1.75 0l-3.88-3.89-1.24 1.24 3.89 3.89a3 3 0 0 0 4.22 0l6.77-6.77a5.79 5.79 0 0 0 0-8.2z" fill="#ececec"/></svg>
