<?xml version="1.0" encoding="utf-8"?>
<!-- Generator: Adobe Illustrator 19.0.0, SVG Export Plug-In . SVG Version: 6.00 Build 0)  -->
<svg version="1.1" id="Layer_1" xmlns="http://www.w3.org/2000/svg" xmlns:xlink="http://www.w3.org/1999/xlink" x="0px" y="0px"
	 viewBox="-161.1 264 291.9 266" style="enable-background:new -161.1 264 291.9 266;" xml:space="preserve">
<style type="text/css">
	.st0{fill:#C03B2B;}
	.st1{fill:#D47F64;}
	.st2{fill:#BB3026;}
</style>
<g id="XMLID_1_">
	<g id="XMLID_15_">
		<path id="XMLID_23_" class="st0" d="M-94.3,265c6.7,0,13.3,0,20,0c1.9,1,3.9,0.2,5.8,0.5c20.6-0.1,35.9,10.3,49.4,24.5
			c4.3,4.5,4.1,4.6,8.5,0c8.8-9.3,19.1-16.5,30.9-21.5c5.9-2.5,12.3-2.3,18.4-3.6c8.3,0,16.7,0,25,0c13.2,0.6,25.1,4.9,35.4,12.9
			c19.9,15.4,31.9,35,31.6,60.9c-0.1,5.7,0.3,11.3-0.2,17c-1.2,16.1-8.3,29.6-18.2,41.9c-6.9,8.6-14.9,16.2-22.4,24.2
			c-7,7.5-13.3,15.8-21.5,22.3c-1.2,0.6-2.5,1.1-3.8,0.5c-1.8-0.8-2.6-2.5-3.5-4.1c-7.1-12.1-14-24.2-21-36.3
			c-2.6-4.5-2.9-8.3-0.1-13c8.4-14,16.3-28.3,24.7-42.3c2.5-4.2,2.5-7.5-0.1-11.4c-3.6-5.3-7.5-10.2-11.8-14.9
			c-3.8-4.3-4.7-4.1-7.5,0.8c-6.3,11.2-12.8,22.2-19.2,33.3c-5.5,9.6-6,9.5-14.2,2c-16-14.7-34.7-19.5-55.5-12.5
			c-19.6,6.6-31.4,20.9-35.6,41c-7,33.2,18.8,64.6,52.7,64.7c15.1,0.1,27.9-5.2,38.6-15.8c0.9-0.9,1.9-1.9,2.9-2.8
			c3.9-3.2,6.2-3,8.8,1.5c5.9,9.9,11.6,19.8,17.3,29.8c2.2,3.8,1.7,7.1-1,10.6c-5.6,7.1-12.2,13.2-18.4,19.7
			c-10.4,11-20.7,22.1-31.3,33c-1.9,1.9-4.1,2.8-6.7,2.4c-1.8-0.6-3.1-1.7-4.4-3.1c-15-15.4-29.8-31-44.3-46.7
			c-21.4-23.3-43.3-46-64.7-69.3c-5.3-5.8-10.8-11.3-15.4-17.6c-10.2-14-15.6-29.3-16-46.9c-0.4-17.3,3-33,12.3-47.5
			c9.1-14.1,21.2-24.6,36.9-30.9C-106.1,266.1-100,266.7-94.3,265z"/>
		<path id="XMLID_19_" class="st1" d="M-68.3,265c-0.1,0.3,0,0.6,0.1,0.9c-2.1,0.4-4.2,0.5-6.1-0.9C-72.3,265-70.3,265-68.3,265z"/>
		<path id="XMLID_17_" class="st0" d="M-48.4,404.1c-3.1-9.3-0.4-17.2,6.3-23.6c7.1-6.8,15.7-8.7,24.9-4.7
			c8.5,3.7,13.8,10.1,14.2,19.9c0.6,13.1-6.8,23.1-18.9,25.3c-11.7,2.2-22.4-4.4-26.3-16.1c0.3-0.4,0.4-0.8,0.4-1.3
			C-48.1,403.7-48.1,404.1-48.4,404.1z"/>
		<path id="XMLID_16_" class="st2" d="M-48.4,404.1c0.1-0.9,0.2-1.8,0.4-3.2c1.1,1.8,0.6,2.9-0.2,4
			C-48.5,404.7-48.5,404.5-48.4,404.1z"/>
	</g>
</g>
<g id="XMLID_89_">
</g>
<g id="XMLID_90_">
</g>
<g id="XMLID_91_">
</g>
<g id="XMLID_92_">
</g>
<g id="XMLID_93_">
</g>
<g id="XMLID_94_">
</g>
</svg>
